<svg version="1.1" id="Layer_1" xmlns="http://www.w3.org/2000/svg" xmlns:xlink="http://www.w3.org/1999/xlink" x="0px" y="0px"
	 width="100%" viewBox="0 0 350 351" enable-background="new 0 0 350 351" xml:space="preserve">
<path fill="#FEDE17" opacity="1.000000" stroke="none" 
	d="
M199.000000,352.000000 
	C183.645767,352.000000 168.291550,352.000000 152.806183,351.671631 
	C151.678772,350.896820 150.722824,350.239502 149.679321,350.039856 
	C144.746597,349.095947 139.760864,348.416107 134.847168,347.388214 
	C118.754097,344.021606 103.923767,337.440582 89.745941,329.292908 
	C77.577354,322.299866 66.127258,314.323669 55.996723,304.525116 
	C43.230717,292.177460 32.140995,278.625610 23.379431,263.045776 
	C13.198144,244.941315 6.322906,225.824585 2.930222,205.380600 
	C2.784819,204.504410 1.665586,203.789856 1.000001,203.000000 
	C1.000000,185.645767 1.000000,168.291550 1.326312,150.806076 
	C2.077733,150.178925 2.823269,149.717590 2.881055,149.182037 
	C4.297869,136.051239 8.229116,123.593964 13.022529,111.383095 
	C20.811646,91.540909 32.028599,73.796906 46.424774,58.116817 
	C63.290352,39.747093 83.085457,25.350281 106.043411,15.502657 
	C120.024826,9.505441 134.420456,4.806036 149.621368,2.923948 
	C150.480484,2.817579 151.210114,1.665422 152.000000,1.000001 
	C167.354233,1.000000 182.708450,1.000000 198.193878,1.327915 
	C198.823318,2.080100 199.265366,2.769484 199.828247,2.888819 
	C208.064072,4.634847 216.425369,5.896119 224.543961,8.068274 
	C250.569870,15.031602 273.411743,28.106298 293.345398,46.015640 
	C307.433228,58.672787 319.359955,73.196190 328.602905,89.947449 
	C338.454041,107.801003 346.004303,126.340485 349.071106,146.588821 
	C349.204529,147.469727 350.334320,148.199707 351.000000,149.000000 
	C351.000000,166.687561 351.000000,184.375122 350.675781,202.190720 
	C349.925049,202.812943 349.176758,203.272385 349.119141,203.806412 
	C347.700958,216.940811 343.749084,229.394089 338.982391,241.619629 
	C331.360382,261.168457 320.353271,278.686523 306.257904,294.146912 
	C289.364166,312.676697 269.555359,327.295319 246.398071,337.257843 
	C231.925064,343.484283 217.064041,348.159241 201.378036,350.076111 
	C200.519791,350.181000 199.789719,351.334564 199.000000,352.000000 
M231.095917,271.594879 
	C237.090057,265.585602 242.966537,259.451813 249.133286,253.625259 
	C251.791580,251.113617 252.702393,248.481461 252.695297,244.867477 
	C252.589294,190.895096 252.622116,136.922440 252.622177,82.949860 
	C252.622177,81.161316 252.622177,79.372765 252.622177,77.357468 
	C201.319275,77.357468 150.625443,77.357468 99.659416,77.357468 
	C99.554070,79.109764 99.388985,80.577919 99.388634,82.046104 
	C99.375549,136.685013 99.342049,191.324036 99.500717,245.962494 
	C99.507462,248.284882 100.733192,251.175507 102.370613,252.834717 
	C123.415359,274.159180 144.633194,295.312897 165.822159,316.494904 
	C169.172638,319.844269 172.596756,323.119965 176.307785,326.743073 
	C194.704742,308.224060 212.650223,290.159515 231.095917,271.594879 
M193.901901,72.138824 
	C198.444962,70.466911 198.812607,69.218758 195.529221,66.379822 
	C193.713242,64.809662 192.034653,62.421421 189.325043,65.418602 
	C189.016190,65.760246 186.438690,64.991180 186.131729,64.239494 
	C184.337051,59.844620 182.865036,55.314632 181.393372,50.794678 
	C181.164078,50.090466 181.184311,48.909786 181.618805,48.450481 
	C183.978149,45.956459 181.993332,44.989880 180.214600,43.830334 
	C178.840240,42.934395 177.527069,41.944599 176.463928,41.192631 
	C175.793808,41.767437 175.001007,42.579227 174.080841,43.203209 
	C172.946472,43.972454 171.064941,44.309456 170.631256,45.317329 
	C169.310730,48.386147 167.108856,47.211285 166.792877,45.618607 
	C165.629257,39.753399 163.824402,33.498825 164.885788,27.887224 
	C165.614609,24.033947 164.398743,20.974287 165.174316,17.564856 
	C164.774094,17.489603 164.373856,17.414349 163.973618,17.339096 
	C162.700699,20.145031 161.427795,22.950968 160.105606,25.865547 
	C160.657928,26.871248 161.772629,28.008268 161.865067,29.223072 
	C162.275024,34.610954 162.413818,40.020370 162.605835,45.423588 
	C162.715240,48.502018 162.172028,51.729538 162.920639,54.632584 
	C164.381882,60.299133 166.543747,65.785011 168.683853,72.142929 
	C176.116394,72.142929 184.566849,72.142929 193.901901,72.138824 
M148.559357,32.251987 
	C146.923950,34.538475 145.016541,36.686256 143.753738,39.162735 
	C142.978683,40.682671 143.620026,42.906887 142.888397,44.469910 
	C138.715775,53.384312 140.422455,62.657276 140.212891,71.851341 
	C146.314697,71.851341 151.738907,71.851341 157.096466,71.851341 
	C159.628601,59.608334 156.024323,48.246128 153.548065,36.824696 
	C153.194855,35.195522 150.672928,34.036530 148.559357,32.251987 
M200.803055,46.559078 
	C200.803055,54.981361 200.803055,63.403641 200.803055,71.777710 
	C205.643814,71.777710 209.707626,71.777710 214.073151,71.777710 
	C214.073151,61.287022 214.101669,51.144882 214.061798,41.003010 
	C214.039948,35.446018 212.651764,33.969448 207.668228,33.923782 
	C202.413284,33.875637 200.902359,35.445744 200.807587,41.084152 
	C200.782379,42.583397 200.803268,44.083420 200.803055,46.559078 
M118.940239,59.521408 
	C118.940239,63.605854 118.940239,67.690300 118.940239,71.809914 
	C124.975143,71.809914 130.347458,71.809914 136.053284,71.809914 
	C136.053284,65.382545 136.056808,59.272846 136.051804,53.163155 
	C136.049286,50.085175 131.489929,44.043484 128.556946,43.505268 
	C127.509193,43.313004 125.874527,43.371258 125.305145,44.017605 
	C122.463585,47.243313 117.153793,49.114117 118.895706,55.067860 
	C119.208633,56.137421 118.940231,57.377064 118.940239,59.521408 
M106.768539,36.540581 
	C103.016441,48.044739 98.023087,59.337574 100.406364,71.913849 
	C105.188911,71.913849 109.634178,71.913849 114.301117,71.913849 
	C114.463547,70.595596 114.671707,69.480125 114.728165,68.357033 
	C115.177475,59.420391 112.830185,51.010059 109.806068,42.741615 
	C108.953392,40.410244 107.935677,38.139236 106.768539,36.540581 
M228.395691,72.138405 
	C229.816177,72.023224 231.236664,71.908043 233.176849,71.750725 
	C232.524384,63.527813 231.469467,55.746799 231.448029,47.962936 
	C231.434433,43.031208 230.605377,39.300957 226.164154,37.407490 
	C220.930435,39.846031 220.575592,44.227379 220.900269,49.055576 
	C221.110657,52.184219 221.012680,55.368256 220.689301,58.489807 
	C220.232666,62.897610 219.439941,67.270592 218.719894,72.138512 
	C222.486298,72.138512 224.965118,72.138512 228.395691,72.138405 
M239.015686,49.045761 
	C238.445511,56.618893 237.875320,64.192024 237.301834,71.809052 
	C242.943039,71.809052 247.346786,71.809052 252.213669,71.809052 
	C252.213669,65.885193 251.772217,60.225563 252.342987,54.669926 
	C252.870132,49.538895 249.678604,47.144386 246.183578,45.683380 
	C244.675858,45.053116 241.877350,47.510654 239.015686,49.045761 
z"/>
<path fill="#000000" opacity="1.000000" stroke="none" 
	d="
M199.468658,352.000000 
	C199.789719,351.334564 200.519791,350.181000 201.378036,350.076111 
	C217.064041,348.159241 231.925064,343.484283 246.398071,337.257843 
	C269.555359,327.295319 289.364166,312.676697 306.257904,294.146912 
	C320.353271,278.686523 331.360382,261.168457 338.982391,241.619629 
	C343.749084,229.394089 347.700958,216.940811 349.119141,203.806412 
	C349.176758,203.272385 349.925049,202.812943 350.675781,202.659378 
	C351.000000,252.594406 351.000000,302.188812 351.000000,352.000000 
	C300.645966,352.000000 250.291641,352.000000 199.468658,352.000000 
z"/>
<path fill="#000000" opacity="1.000000" stroke="none" 
	d="
M151.531342,1.000001 
	C151.210114,1.665422 150.480484,2.817579 149.621368,2.923948 
	C134.420456,4.806036 120.024826,9.505441 106.043411,15.502657 
	C83.085457,25.350281 63.290352,39.747093 46.424774,58.116817 
	C32.028599,73.796906 20.811646,91.540909 13.022529,111.383095 
	C8.229116,123.593964 4.297869,136.051239 2.881055,149.182037 
	C2.823269,149.717590 2.077733,150.178925 1.326312,150.337418 
	C1.000000,100.405846 1.000000,50.811687 1.000000,1.000000 
	C51.020683,1.000000 101.041687,1.000000 151.531342,1.000001 
z"/>
<path fill="#000000" opacity="1.000000" stroke="none" 
	d="
M351.000000,148.531342 
	C350.334320,148.199707 349.204529,147.469727 349.071106,146.588821 
	C346.004303,126.340485 338.454041,107.801003 328.602905,89.947449 
	C319.359955,73.196190 307.433228,58.672787 293.345398,46.015640 
	C273.411743,28.106298 250.569870,15.031602 224.543961,8.068274 
	C216.425369,5.896119 208.064072,4.634847 199.828247,2.888819 
	C199.265366,2.769484 198.823318,2.080100 198.662537,1.327915 
	C249.592697,1.000000 300.185394,1.000000 351.000000,1.000000 
	C351.000000,50.020672 351.000000,99.041679 351.000000,148.531342 
z"/>
<path fill="#000000" opacity="1.000000" stroke="none" 
	d="
M1.000001,203.468658 
	C1.665586,203.789856 2.784819,204.504410 2.930222,205.380600 
	C6.322906,225.824585 13.198144,244.941315 23.379431,263.045776 
	C32.140995,278.625610 43.230717,292.177460 55.996723,304.525116 
	C66.127258,314.323669 77.577354,322.299866 89.745941,329.292908 
	C103.923767,337.440582 118.754097,344.021606 134.847168,347.388214 
	C139.760864,348.416107 144.746597,349.095947 149.679321,350.039856 
	C150.722824,350.239502 151.678772,350.896820 152.337524,351.671631 
	C101.740150,352.000000 51.480301,352.000000 1.000000,352.000000 
	C1.000000,302.645996 1.000000,253.291656 1.000001,203.468658 
z"/>
<path fill="#38382D" opacity="1.000000" stroke="none" 
	d="
M230.845810,271.844940 
	C212.650223,290.159515 194.704742,308.224060 176.307785,326.743073 
	C172.596756,323.119965 169.172638,319.844269 165.822159,316.494904 
	C144.633194,295.312897 123.415359,274.159180 102.370613,252.834717 
	C100.733192,251.175507 99.507462,248.284882 99.500717,245.962494 
	C99.342049,191.324036 99.375549,136.685013 99.388634,82.046104 
	C99.388985,80.577919 99.554070,79.109764 99.659416,77.357468 
	C150.625443,77.357468 201.319275,77.357468 252.622177,77.357468 
	C252.622177,79.372765 252.622177,81.161316 252.622177,82.949860 
	C252.622116,136.922440 252.589294,190.895096 252.695297,244.867477 
	C252.702393,248.481461 251.791580,251.113617 249.133286,253.625259 
	C242.966537,259.451813 237.090057,265.585602 230.845810,271.844940 
M112.616646,118.177628 
	C118.239639,118.177628 123.862640,118.177628 127.789963,118.177628 
	C132.986786,107.983345 137.635529,98.864204 142.185577,89.938644 
	C132.602921,89.938644 122.143822,89.938644 111.044106,90.354553 
	C110.858841,99.283150 110.662064,108.211586 110.537605,117.141029 
	C110.533379,117.444420 111.256439,117.757935 112.616646,118.177628 
M240.988785,117.640129 
	C241.296722,117.082253 241.867172,116.527092 241.872986,115.966080 
	C241.953354,108.218948 242.012695,100.470207 241.904099,92.724297 
	C241.890976,91.788429 240.867752,90.866730 239.338287,89.868408 
	C229.153397,89.868408 218.968521,89.868408 207.490219,89.868408 
	C216.176971,98.349930 220.471405,107.679024 222.382599,118.066078 
	C228.742310,118.066078 234.550568,118.066078 240.988785,117.640129 
M239.823105,183.618530 
	C226.562607,172.957153 213.302094,162.295761 200.041595,151.634369 
	C212.202057,175.260040 225.120697,197.925003 238.099762,220.555298 
	C238.712051,221.622879 239.861557,222.382339 241.301300,223.226593 
	C241.530029,222.829422 241.957214,222.432938 241.958603,222.034973 
	C241.998611,210.471069 242.039673,198.906586 241.930176,187.343628 
	C241.919693,186.237350 240.927704,185.140366 239.823105,183.618530 
M110.903320,184.440292 
	C110.607933,185.183197 110.059029,185.924774 110.055084,186.669220 
	C109.993515,198.304443 109.984680,209.940155 110.047935,221.575287 
	C110.051041,222.147003 110.825752,222.714523 111.961449,222.968857 
	C112.427467,222.526443 113.032532,222.163971 113.339462,221.630081 
	C125.820625,199.920670 138.284775,178.201416 150.706161,156.457764 
	C151.392197,155.256836 151.695084,153.837021 152.176315,152.519089 
	C151.891296,152.322800 151.606293,152.126511 151.321274,151.930237 
	C138.055511,162.633118 124.789757,173.335999 110.903320,184.440292 
M112.186928,167.563126 
	C122.703056,159.182190 133.265427,150.858337 143.714844,142.395020 
	C148.579697,138.454819 153.225403,134.244049 157.361740,129.587021 
	C156.733627,129.402390 156.106003,129.058517 155.477310,129.056549 
	C142.046570,129.014435 128.615585,128.985092 115.185097,129.048904 
	C114.130356,129.053909 113.078949,129.760010 111.769043,130.671555 
	C111.619965,130.799911 111.470886,130.928268 110.749466,131.492538 
	C110.511963,132.091110 110.070381,132.688644 110.067299,133.288422 
	C110.012749,143.878281 109.975021,154.468735 110.061890,165.057983 
	C110.069633,166.002197 110.961723,166.939163 112.186928,167.563126 
M239.361710,129.576721 
	C238.732407,129.395035 238.103592,129.056641 237.473740,129.054718 
	C224.042130,129.013931 210.610291,128.984909 197.178955,129.050995 
	C196.127899,129.056168 195.080368,129.776840 194.315186,130.757401 
	C203.226303,138.129257 212.071182,145.583206 221.070969,152.845169 
	C227.467911,158.006897 234.073669,162.909821 241.224747,167.378372 
	C241.476196,166.604065 241.942490,165.830887 241.946609,165.055267 
	C242.001480,154.729416 242.028244,144.402878 241.939972,134.077576 
	C241.931335,133.066940 241.115631,132.063187 240.228104,130.672760 
	C240.143265,130.495895 240.058411,130.319016 239.361710,129.576721 
M224.519852,261.021667 
	C228.046249,257.490662 231.370132,253.721298 235.160217,250.500565 
	C238.460785,247.695816 238.477646,245.365753 236.353287,241.705521 
	C222.080414,217.113647 208.049835,192.381180 193.928696,167.701172 
	C190.498932,161.706863 187.024246,155.738281 183.570206,149.757874 
	C183.241547,149.859665 182.912872,149.961456 182.584198,150.063248 
	C182.584198,200.759827 182.584198,251.456390 182.584198,303.030151 
	C196.782898,288.796570 210.393997,275.152069 224.519852,261.021667 
M155.260452,172.792877 
	C142.025726,195.900986 128.850937,219.043854 115.487938,242.077560 
	C113.606461,245.320648 113.588081,247.317612 116.422615,250.103836 
	C133.400986,266.792847 150.162720,283.702179 167.019394,300.515289 
	C167.746368,301.240356 168.692825,301.745361 169.675125,302.452271 
	C169.675125,251.001373 169.675125,200.013748 169.675125,147.824677 
	C164.597443,156.652679 160.132080,164.416107 155.260452,172.792877 
M164.500061,118.205978 
	C179.419083,118.205978 194.338104,118.205978 209.300949,118.205978 
	C207.994141,102.696465 192.631714,89.870537 176.018799,89.858261 
	C159.412094,89.845993 143.987885,102.685562 142.682709,118.206024 
	C149.646149,118.206024 156.573120,118.206024 164.500061,118.205978 
z"/>
<path fill="#38392D" opacity="1.000000" stroke="none" 
	d="
M193.459595,72.140877 
	C184.566849,72.142929 176.116394,72.142929 168.683853,72.142929 
	C166.543747,65.785011 164.381882,60.299133 162.920639,54.632584 
	C162.172028,51.729538 162.715240,48.502018 162.605835,45.423588 
	C162.413818,40.020370 162.275024,34.610954 161.865067,29.223072 
	C161.772629,28.008268 160.657928,26.871248 160.105606,25.865547 
	C161.427795,22.950968 162.700699,20.145031 163.973618,17.339096 
	C164.373856,17.414349 164.774094,17.489603 165.174316,17.564856 
	C164.398743,20.974287 165.614609,24.033947 164.885788,27.887224 
	C163.824402,33.498825 165.629257,39.753399 166.792877,45.618607 
	C167.108856,47.211285 169.310730,48.386147 170.631256,45.317329 
	C171.064941,44.309456 172.946472,43.972454 174.080841,43.203209 
	C175.001007,42.579227 175.793808,41.767437 176.463928,41.192631 
	C177.527069,41.944599 178.840240,42.934395 180.214600,43.830334 
	C181.993332,44.989880 183.978149,45.956459 181.618805,48.450481 
	C181.184311,48.909786 181.164078,50.090466 181.393372,50.794678 
	C182.865036,55.314632 184.337051,59.844620 186.131729,64.239494 
	C186.438690,64.991180 189.016190,65.760246 189.325043,65.418602 
	C192.034653,62.421421 193.713242,64.809662 195.529221,66.379822 
	C198.812607,69.218758 198.444962,70.466911 193.459595,72.140877 
z"/>
<path fill="#393A2D" opacity="1.000000" stroke="none" 
	d="
M148.857040,32.455956 
	C150.672928,34.036530 153.194855,35.195522 153.548065,36.824696 
	C156.024323,48.246128 159.628601,59.608334 157.096466,71.851341 
	C151.738907,71.851341 146.314697,71.851341 140.212891,71.851341 
	C140.422455,62.657276 138.715775,53.384312 142.888397,44.469910 
	C143.620026,42.906887 142.978683,40.682671 143.753738,39.162735 
	C145.016541,36.686256 146.923950,34.538475 148.857040,32.455956 
z"/>
<path fill="#34352E" opacity="1.000000" stroke="none" 
	d="
M200.803040,46.071083 
	C200.803268,44.083420 200.782379,42.583397 200.807587,41.084152 
	C200.902359,35.445744 202.413284,33.875637 207.668228,33.923782 
	C212.651764,33.969448 214.039948,35.446018 214.061798,41.003010 
	C214.101669,51.144882 214.073151,61.287022 214.073151,71.777710 
	C209.707626,71.777710 205.643814,71.777710 200.803055,71.777710 
	C200.803055,63.403641 200.803055,54.981361 200.803040,46.071083 
z"/>
<path fill="#35362E" opacity="1.000000" stroke="none" 
	d="
M118.940231,59.029793 
	C118.940231,57.377064 119.208633,56.137421 118.895706,55.067860 
	C117.153793,49.114117 122.463585,47.243313 125.305145,44.017605 
	C125.874527,43.371258 127.509193,43.313004 128.556946,43.505268 
	C131.489929,44.043484 136.049286,50.085175 136.051804,53.163155 
	C136.056808,59.272846 136.053284,65.382545 136.053284,71.809914 
	C130.347458,71.809914 124.975143,71.809914 118.940239,71.809914 
	C118.940239,67.690300 118.940239,63.605854 118.940231,59.029793 
z"/>
<path fill="#393A2D" opacity="1.000000" stroke="none" 
	d="
M106.881104,36.190559 
	C107.935677,38.139236 108.953392,40.410244 109.806068,42.741615 
	C112.830185,51.010059 115.177475,59.420391 114.728165,68.357033 
	C114.671707,69.480125 114.463547,70.595596 114.301117,71.913849 
	C109.634178,71.913849 105.188911,71.913849 100.406364,71.913849 
	C98.023087,59.337574 103.016441,48.044739 106.881104,36.190559 
z"/>
<path fill="#37382D" opacity="1.000000" stroke="none" 
	d="
M227.919815,72.138458 
	C224.965118,72.138512 222.486298,72.138512 218.719894,72.138512 
	C219.439941,67.270592 220.232666,62.897610 220.689301,58.489807 
	C221.012680,55.368256 221.110657,52.184219 220.900269,49.055576 
	C220.575592,44.227379 220.930435,39.846031 226.164154,37.407490 
	C230.605377,39.300957 231.434433,43.031208 231.448029,47.962936 
	C231.469467,55.746799 232.524384,63.527813 233.176849,71.750725 
	C231.236664,71.908043 229.816177,72.023224 227.919815,72.138458 
z"/>
<path fill="#33352E" opacity="1.000000" stroke="none" 
	d="
M239.340454,48.805614 
	C241.877350,47.510654 244.675858,45.053116 246.183578,45.683380 
	C249.678604,47.144386 252.870132,49.538895 252.342987,54.669926 
	C251.772217,60.225563 252.213669,65.885193 252.213669,71.809052 
	C247.346786,71.809052 242.943039,71.809052 237.301834,71.809052 
	C237.875320,64.192024 238.445511,56.618893 239.340454,48.805614 
z"/>
<path fill="#FCDB17" opacity="1.000000" stroke="none" 
	d="
M224.262482,261.264618 
	C210.393997,275.152069 196.782898,288.796570 182.584198,303.030151 
	C182.584198,251.456390 182.584198,200.759827 182.584198,150.063248 
	C182.912872,149.961456 183.241547,149.859665 183.570206,149.757874 
	C187.024246,155.738281 190.498932,161.706863 193.928696,167.701172 
	C208.049835,192.381180 222.080414,217.113647 236.353287,241.705521 
	C238.477646,245.365753 238.460785,247.695816 235.160217,250.500565 
	C231.370132,253.721298 228.046249,257.490662 224.262482,261.264618 
z"/>
<path fill="#FDDD17" opacity="1.000000" stroke="none" 
	d="
M155.463593,172.486206 
	C160.132080,164.416107 164.597443,156.652679 169.675125,147.824677 
	C169.675125,200.013748 169.675125,251.001373 169.675125,302.452271 
	C168.692825,301.745361 167.746368,301.240356 167.019394,300.515289 
	C150.162720,283.702179 133.400986,266.792847 116.422615,250.103836 
	C113.588081,247.317612 113.606461,245.320648 115.487938,242.077560 
	C128.850937,219.043854 142.025726,195.900986 155.463593,172.486206 
z"/>
<path fill="#FDDC17" opacity="1.000000" stroke="none" 
	d="
M164.000076,118.206001 
	C156.573120,118.206024 149.646149,118.206024 142.682709,118.206024 
	C143.987885,102.685562 159.412094,89.845993 176.018799,89.858261 
	C192.631714,89.870537 207.994141,102.696465 209.300949,118.205978 
	C194.338104,118.205978 179.419083,118.205978 164.000076,118.206001 
z"/>
<path fill="#F9DA18" opacity="1.000000" stroke="none" 
	d="
M240.586243,167.928253 
	C234.073669,162.909821 227.467911,158.006897 221.070969,152.845169 
	C212.071182,145.583206 203.226303,138.129257 194.639664,130.474457 
	C209.967270,130.175049 224.970413,130.158600 239.973541,130.142151 
	C240.058411,130.319016 240.143265,130.495895 240.374115,131.323364 
	C240.542175,143.958740 240.564209,155.943497 240.586243,167.928253 
z"/>
<path fill="#F9DA18" opacity="1.000000" stroke="none" 
	d="
M157.970444,130.155914 
	C153.225403,134.244049 148.579697,138.454819 143.714844,142.395020 
	C133.265427,150.858337 122.703056,159.182190 111.845596,167.194550 
	C111.443451,154.902847 111.382629,142.979736 111.321808,131.056625 
	C111.470886,130.928268 111.619965,130.799911 112.363968,130.430618 
	C127.962746,130.178436 142.966599,130.167175 157.970444,130.155914 
z"/>
<path fill="#FADB17" opacity="1.000000" stroke="none" 
	d="
M111.523987,184.038879 
	C124.789757,173.335999 138.055511,162.633118 151.321274,151.930237 
	C151.606293,152.126511 151.891296,152.322800 152.176315,152.519089 
	C151.695084,153.837021 151.392197,155.256836 150.706161,156.457764 
	C138.284775,178.201416 125.820625,199.920670 113.339462,221.630081 
	C113.032532,222.163971 112.427467,222.526443 111.711197,222.649841 
	C111.481949,209.566833 111.502968,196.802856 111.523987,184.038879 
z"/>
<path fill="#FADA17" opacity="1.000000" stroke="none" 
	d="
M240.760880,223.285294 
	C239.861557,222.382339 238.712051,221.622879 238.099762,220.555298 
	C225.120697,197.925003 212.202057,175.260040 200.041595,151.634369 
	C213.302094,162.295761 226.562607,172.957153 240.130737,184.294449 
	C240.545868,197.742004 240.653366,210.513657 240.760880,223.285294 
z"/>
<path fill="#FEDD17" opacity="1.000000" stroke="none" 
	d="
M240.358826,118.066078 
	C234.550568,118.066078 228.742310,118.066078 222.382599,118.066078 
	C220.471405,107.679024 216.176971,98.349930 207.490219,89.868408 
	C218.968521,89.868408 229.153397,89.868408 239.882751,90.373375 
	C240.404434,99.940918 240.381622,109.003502 240.358826,118.066078 
z"/>
<path fill="#FEDD17" opacity="1.000000" stroke="none" 
	d="
M111.684723,89.938644 
	C122.143822,89.938644 132.602921,89.938644 142.185577,89.938644 
	C137.635529,98.864204 132.986786,107.983345 127.789963,118.177628 
	C123.862640,118.177628 118.239639,118.177628 112.090607,117.650314 
	C111.604622,108.061546 111.644676,99.000099 111.684723,89.938644 
z"/>
<path fill="#212B2D" opacity="1.000000" stroke="none" 
	d="
M111.213654,184.239594 
	C111.502968,196.802856 111.481949,209.566833 111.351051,222.807404 
	C110.825752,222.714523 110.051041,222.147003 110.047935,221.575287 
	C109.984680,209.940155 109.993515,198.304443 110.055084,186.669220 
	C110.059029,185.924774 110.607933,185.183197 111.213654,184.239594 
z"/>
<path fill="#212B2D" opacity="1.000000" stroke="none" 
	d="
M241.031097,223.255951 
	C240.653366,210.513657 240.545868,197.742004 240.414856,184.504730 
	C240.927704,185.140366 241.919693,186.237350 241.930176,187.343628 
	C242.039673,198.906586 241.998611,210.471069 241.958603,222.034973 
	C241.957214,222.432938 241.530029,222.829422 241.031097,223.255951 
z"/>
<path fill="#212B2D" opacity="1.000000" stroke="none" 
	d="
M111.035637,131.274582 
	C111.382629,142.979736 111.443451,154.902847 111.473686,167.352722 
	C110.961723,166.939163 110.069633,166.002197 110.061890,165.057983 
	C109.975021,154.468735 110.012749,143.878281 110.067299,133.288422 
	C110.070381,132.688644 110.511963,132.091110 111.035637,131.274582 
z"/>
<path fill="#212B2D" opacity="1.000000" stroke="none" 
	d="
M240.905487,167.653320 
	C240.564209,155.943497 240.542175,143.958740 240.597351,131.515106 
	C241.115631,132.063187 241.931335,133.066940 241.939972,134.077576 
	C242.028244,144.402878 242.001480,154.729416 241.946609,165.055267 
	C241.942490,165.830887 241.476196,166.604065 240.905487,167.653320 
z"/>
<path fill="#212B2D" opacity="1.000000" stroke="none" 
	d="
M240.673798,117.853104 
	C240.381622,109.003502 240.404434,99.940918 240.369965,90.408401 
	C240.867752,90.866730 241.890976,91.788429 241.904099,92.724297 
	C242.012695,100.470207 241.953354,108.218948 241.872986,115.966080 
	C241.867172,116.527092 241.296722,117.082253 240.673798,117.853104 
z"/>
<path fill="#212B2D" opacity="1.000000" stroke="none" 
	d="
M111.364418,90.146599 
	C111.644676,99.000099 111.604622,108.061546 111.602539,117.594864 
	C111.256439,117.757935 110.533379,117.444420 110.537605,117.141029 
	C110.662064,108.211586 110.858841,99.283150 111.364418,90.146599 
z"/>
<path fill="#12232E" opacity="1.000000" stroke="none" 
	d="
M239.667633,129.859436 
	C224.970413,130.158600 209.967270,130.175049 194.497665,130.178238 
	C195.080368,129.776840 196.127899,129.056168 197.178955,129.050995 
	C210.610291,128.984909 224.042130,129.013931 237.473740,129.054718 
	C238.103592,129.056641 238.732407,129.395035 239.667633,129.859436 
z"/>
<path fill="#12232E" opacity="1.000000" stroke="none" 
	d="
M157.666092,129.871460 
	C142.966599,130.167175 127.962746,130.178436 112.492447,130.164978 
	C113.078949,129.760010 114.130356,129.053909 115.185097,129.048904 
	C128.615585,128.985092 142.046570,129.014435 155.477310,129.056549 
	C156.106003,129.058517 156.733627,129.402390 157.666092,129.871460 
z"/>
</svg>